<mxfile host="65bd71144e">
    <diagram id="AYQ3oXsVWBvBembaCSa3" name="Страница 1">
        <mxGraphModel dx="1493" dy="330" grid="1" gridSize="10" guides="1" tooltips="1" connect="1" arrows="1" fold="1" page="1" pageScale="1" pageWidth="827" pageHeight="1169" math="0" shadow="0">
            <root>
                <mxCell id="0"/>
                <mxCell id="1" parent="0"/>
                <mxCell id="9" value="KohonenMaps" style="swimlane;fontStyle=0;childLayout=stackLayout;horizontal=1;startSize=26;fillColor=none;horizontalStack=0;resizeParent=1;resizeParentMax=0;resizeLast=0;collapsible=1;marginBottom=0;fontSize=12;" parent="1" vertex="1">
                    <mxGeometry x="160" y="90" width="440" height="338" as="geometry"/>
                </mxCell>
                <mxCell id="10" value="+ map: numpy.ndarray" style="text;strokeColor=none;fillColor=none;align=left;verticalAlign=top;spacingLeft=4;spacingRight=4;overflow=hidden;rotatable=0;points=[[0,0.5],[1,0.5]];portConstraint=eastwest;" parent="9" vertex="1">
                    <mxGeometry y="26" width="440" height="26" as="geometry"/>
                </mxCell>
                <mxCell id="11" value="+ learning_time: int" style="text;strokeColor=none;fillColor=none;align=left;verticalAlign=top;spacingLeft=4;spacingRight=4;overflow=hidden;rotatable=0;points=[[0,0.5],[1,0.5]];portConstraint=eastwest;" parent="9" vertex="1">
                    <mxGeometry y="52" width="440" height="26" as="geometry"/>
                </mxCell>
                <mxCell id="12" value="+ radius: float" style="text;strokeColor=none;fillColor=none;align=left;verticalAlign=top;spacingLeft=4;spacingRight=4;overflow=hidden;rotatable=0;points=[[0,0.5],[1,0.5]];portConstraint=eastwest;" parent="9" vertex="1">
                    <mxGeometry y="78" width="440" height="26" as="geometry"/>
                </mxCell>
                <mxCell id="14" value="+ speed_parameter_1: float" style="text;strokeColor=none;fillColor=none;align=left;verticalAlign=top;spacingLeft=4;spacingRight=4;overflow=hidden;rotatable=0;points=[[0,0.5],[1,0.5]];portConstraint=eastwest;" parent="9" vertex="1">
                    <mxGeometry y="104" width="440" height="26" as="geometry"/>
                </mxCell>
                <mxCell id="16" value="+ save_weights(save_path) -&gt; None" style="text;strokeColor=none;fillColor=none;align=left;verticalAlign=top;spacingLeft=4;spacingRight=4;overflow=hidden;rotatable=0;points=[[0,0.5],[1,0.5]];portConstraint=eastwest;" parent="9" vertex="1">
                    <mxGeometry y="130" width="440" height="26" as="geometry"/>
                </mxCell>
                <mxCell id="18" value="+ load_weights(load_path) -&gt; None" style="text;strokeColor=none;fillColor=none;align=left;verticalAlign=top;spacingLeft=4;spacingRight=4;overflow=hidden;rotatable=0;points=[[0,0.5],[1,0.5]];portConstraint=eastwest;" parent="9" vertex="1">
                    <mxGeometry y="156" width="440" height="26" as="geometry"/>
                </mxCell>
                <mxCell id="21" value="+ activation_function(input_vector)-&gt;numpy.ndarray" style="text;strokeColor=none;fillColor=none;align=left;verticalAlign=top;spacingLeft=4;spacingRight=4;overflow=hidden;rotatable=0;points=[[0,0.5],[1,0.5]];portConstraint=eastwest;" parent="9" vertex="1">
                    <mxGeometry y="182" width="440" height="26" as="geometry"/>
                </mxCell>
                <mxCell id="20" value="+ get_winner_neuron(input_vector)-&gt;numpy.ndarray" style="text;strokeColor=none;fillColor=none;align=left;verticalAlign=top;spacingLeft=4;spacingRight=4;overflow=hidden;rotatable=0;points=[[0,0.5],[1,0.5]];portConstraint=eastwest;" parent="9" vertex="1">
                    <mxGeometry y="208" width="440" height="26" as="geometry"/>
                </mxCell>
                <mxCell id="23" value="+ get_speed_parameter()-&gt; float" style="text;strokeColor=none;fillColor=none;align=left;verticalAlign=top;spacingLeft=4;spacingRight=4;overflow=hidden;rotatable=0;points=[[0,0.5],[1,0.5]];portConstraint=eastwest;" parent="9" vertex="1">
                    <mxGeometry y="234" width="440" height="26" as="geometry"/>
                </mxCell>
                <mxCell id="22" value="+ get_effective_width(current_time)-&gt; float" style="text;strokeColor=none;fillColor=none;align=left;verticalAlign=top;spacingLeft=4;spacingRight=4;overflow=hidden;rotatable=0;points=[[0,0.5],[1,0.5]];portConstraint=eastwest;" parent="9" vertex="1">
                    <mxGeometry y="260" width="440" height="26" as="geometry"/>
                </mxCell>
                <mxCell id="25" value="+ get_neuron_distance(neuron_coord, winer_neuron_coord)-&gt; float" style="text;strokeColor=none;fillColor=none;align=left;verticalAlign=top;spacingLeft=4;spacingRight=4;overflow=hidden;rotatable=0;points=[[0,0.5],[1,0.5]];portConstraint=eastwest;" parent="9" vertex="1">
                    <mxGeometry y="286" width="440" height="26" as="geometry"/>
                </mxCell>
                <mxCell id="24" value="+ h_distance_func(neuron_coord, winer_neuron_coord, current_time)-&gt; float" style="text;strokeColor=none;fillColor=none;align=left;verticalAlign=top;spacingLeft=4;spacingRight=4;overflow=hidden;rotatable=0;points=[[0,0.5],[1,0.5]];portConstraint=eastwest;" parent="9" vertex="1">
                    <mxGeometry y="312" width="440" height="26" as="geometry"/>
                </mxCell>
                <mxCell id="19" value="" style="endArrow=none;html=1;" parent="9" edge="1">
                    <mxGeometry width="50" height="50" relative="1" as="geometry">
                        <mxPoint y="128" as="sourcePoint"/>
                        <mxPoint x="440" y="128" as="targetPoint"/>
                    </mxGeometry>
                </mxCell>
                <mxCell id="43" style="edgeStyle=orthogonalEdgeStyle;html=1;exitX=0.5;exitY=0;exitDx=0;exitDy=0;endArrow=block;endFill=0;" edge="1" parent="1" source="30">
                    <mxGeometry relative="1" as="geometry">
                        <mxPoint x="369" y="430" as="targetPoint"/>
                    </mxGeometry>
                </mxCell>
                <mxCell id="30" value="KohonenMapsConsistentAlg" style="swimlane;fontStyle=0;childLayout=stackLayout;horizontal=1;startSize=30;horizontalStack=0;resizeParent=1;resizeParentMax=0;resizeLast=0;collapsible=1;marginBottom=0;fontSize=12;strokeColor=default;strokeWidth=1;" parent="1" vertex="1">
                    <mxGeometry x="-130" y="585" width="530" height="150" as="geometry"/>
                </mxCell>
                <mxCell id="31" value="+ speed_parameter_2" style="text;strokeColor=none;fillColor=none;align=left;verticalAlign=middle;spacingLeft=4;spacingRight=4;overflow=hidden;points=[[0,0.5],[1,0.5]];portConstraint=eastwest;rotatable=0;fontSize=12;" parent="30" vertex="1">
                    <mxGeometry y="30" width="530" height="30" as="geometry"/>
                </mxCell>
                <mxCell id="32" value="+ get_learning_rate(current_time, learning_rate_start)-&gt;None" style="text;strokeColor=none;fillColor=none;align=left;verticalAlign=middle;spacingLeft=4;spacingRight=4;overflow=hidden;points=[[0,0.5],[1,0.5]];portConstraint=eastwest;rotatable=0;fontSize=12;" parent="30" vertex="1">
                    <mxGeometry y="60" width="530" height="30" as="geometry"/>
                </mxCell>
                <mxCell id="33" value="+ update_neuron_weight(input_vector, neuron_coord, winer_neuron_coord, current_time)-&gt;None" style="text;strokeColor=none;fillColor=none;align=left;verticalAlign=middle;spacingLeft=4;spacingRight=4;overflow=hidden;points=[[0,0.5],[1,0.5]];portConstraint=eastwest;rotatable=0;fontSize=12;" parent="30" vertex="1">
                    <mxGeometry y="90" width="530" height="30" as="geometry"/>
                </mxCell>
                <mxCell id="36" value="+ update_all_weights(input_vector, winer_neuron_coord, current_time)-&gt;None" style="text;strokeColor=none;fillColor=none;align=left;verticalAlign=middle;spacingLeft=4;spacingRight=4;overflow=hidden;points=[[0,0.5],[1,0.5]];portConstraint=eastwest;rotatable=0;fontSize=12;" parent="30" vertex="1">
                    <mxGeometry y="120" width="530" height="30" as="geometry"/>
                </mxCell>
                <mxCell id="35" value="" style="endArrow=none;html=1;fontSize=12;exitX=-0.004;exitY=0;exitDx=0;exitDy=0;exitPerimeter=0;entryX=1.004;entryY=0;entryDx=0;entryDy=0;entryPerimeter=0;" parent="30" source="32" target="32" edge="1">
                    <mxGeometry width="50" height="50" relative="1" as="geometry">
                        <mxPoint x="270" y="90" as="sourcePoint"/>
                        <mxPoint x="320" y="40" as="targetPoint"/>
                    </mxGeometry>
                </mxCell>
                <mxCell id="48" style="edgeStyle=orthogonalEdgeStyle;html=1;exitX=0.5;exitY=0;exitDx=0;exitDy=0;endArrow=block;endFill=0;jumpSize=6;" edge="1" parent="1" source="37">
                    <mxGeometry relative="1" as="geometry">
                        <mxPoint x="370" y="430" as="targetPoint"/>
                    </mxGeometry>
                </mxCell>
                <mxCell id="37" value="KohonenMapsPackageAlg" style="swimlane;fontStyle=0;childLayout=stackLayout;horizontal=1;startSize=30;horizontalStack=0;resizeParent=1;resizeParentMax=0;resizeLast=0;collapsible=1;marginBottom=0;fontSize=12;strokeColor=default;strokeWidth=1;" vertex="1" parent="1">
                    <mxGeometry x="520" y="585" width="380" height="90" as="geometry"/>
                </mxCell>
                <mxCell id="39" value="+ get_neighbour_neurons_area(neuron_coords, current_time)-&gt;tuple" style="text;strokeColor=none;fillColor=none;align=left;verticalAlign=middle;spacingLeft=4;spacingRight=4;overflow=hidden;points=[[0,0.5],[1,0.5]];portConstraint=eastwest;rotatable=0;fontSize=12;" vertex="1" parent="37">
                    <mxGeometry y="30" width="380" height="30" as="geometry"/>
                </mxCell>
                <mxCell id="40" value="+ update_all_weights(history_map, current_time)-&gt;None" style="text;strokeColor=none;fillColor=none;align=left;verticalAlign=middle;spacingLeft=4;spacingRight=4;overflow=hidden;points=[[0,0.5],[1,0.5]];portConstraint=eastwest;rotatable=0;fontSize=12;" vertex="1" parent="37">
                    <mxGeometry y="60" width="380" height="30" as="geometry"/>
                </mxCell>
            </root>
        </mxGraphModel>
    </diagram>
</mxfile>